<svg width="125" height="22" viewBox="0 0 125 22" fill="none" xmlns="http://www.w3.org/2000/svg">
<path d="M5.77096 21.8627C4.27406 21.8627 3.06035 21.3671 2.12984 20.3759C1.19933 19.3847 0.734078 18.0901 0.734078 16.492V15.7942C0.734078 15.5919 0.83522 15.4907 1.0375 15.4907H2.5243C2.72658 15.4907 2.82772 15.5919 2.82772 15.7942V16.401C2.82772 17.4731 3.10081 18.3429 3.64698 19.0105C4.19314 19.6578 4.90114 19.9814 5.77096 19.9814C6.62056 19.9814 7.32855 19.6679 7.89495 19.0408C8.46135 18.4137 8.74455 17.5844 8.74455 16.5527C8.74455 15.865 8.60295 15.2783 8.31975 14.7928C8.05678 14.2871 7.70278 13.8522 7.25775 13.4881C6.83296 13.1038 6.11485 12.5273 5.10342 11.7586C4.092 11.0101 3.29298 10.3729 2.70635 9.84699C2.11973 9.30082 1.63424 8.65351 1.2499 7.90506C0.885792 7.1566 0.703735 6.27666 0.703735 5.26524C0.703735 3.68742 1.15888 2.44337 2.06916 1.53309C2.97944 0.602583 4.1628 0.137329 5.61925 0.137329C7.15661 0.137329 8.38043 0.64304 9.29071 1.65446C10.2212 2.64566 10.6865 3.97062 10.6865 5.62935V6.38792C10.6865 6.59021 10.5853 6.69135 10.3831 6.69135H8.86592C8.66363 6.69135 8.56249 6.59021 8.56249 6.38792V5.59901C8.56249 4.5269 8.28941 3.66719 7.74324 3.01988C7.2173 2.35234 6.5093 2.01857 5.61925 2.01857C4.81011 2.01857 4.14257 2.31189 3.61663 2.89851C3.09069 3.46491 2.82772 4.27405 2.82772 5.32593C2.82772 5.95301 2.93898 6.50929 3.16149 6.99477C3.40423 7.46003 3.75823 7.90506 4.22349 8.32985C4.68874 8.75465 5.37651 9.31093 6.28679 9.9987C7.5005 10.8888 8.40066 11.617 8.98729 12.1834C9.59414 12.7295 10.0594 13.3364 10.3831 14.0039C10.7067 14.6512 10.8685 15.4402 10.8685 16.3707C10.8685 18.0294 10.3932 19.3645 9.44243 20.3759C8.49169 21.3671 7.26787 21.8627 5.77096 21.8627Z" fill="black"/>
<path d="M19.2739 21.8627C17.7163 21.8627 16.4622 21.3266 15.5114 20.2545C14.5607 19.1824 14.0853 17.7664 14.0853 16.0066V0.683496C14.0853 0.481211 14.1865 0.380069 14.3888 0.380069H15.9362C16.1385 0.380069 16.2397 0.481211 16.2397 0.683496V16.2493C16.2397 17.3619 16.5127 18.262 17.0589 18.9498C17.6253 19.6376 18.3637 19.9814 19.2739 19.9814C20.2044 19.9814 20.9529 19.6376 21.5193 18.9498C22.0857 18.262 22.3689 17.3619 22.3689 16.2493V0.683496C22.3689 0.481211 22.47 0.380069 22.6723 0.380069H24.2198C24.4221 0.380069 24.5232 0.481211 24.5232 0.683496V16.0066C24.5232 17.7664 24.0377 19.1824 23.0668 20.2545C22.116 21.3266 20.8518 21.8627 19.2739 21.8627Z" fill="black"/>
<path d="M33.5627 0.349727C35.0394 0.349727 36.2329 0.895895 37.1432 1.98823C38.0534 3.06034 38.5086 4.47633 38.5086 6.23621C38.5086 7.97585 38.0636 9.38173 37.1735 10.4538C36.2835 11.5057 35.1102 12.0317 33.6538 12.0317H30.5285C30.4475 12.0317 30.4071 12.0721 30.4071 12.153V21.3165C30.4071 21.5188 30.3059 21.6199 30.1037 21.6199H28.5562C28.3539 21.6199 28.2528 21.5188 28.2528 21.3165V0.653153C28.2528 0.450869 28.3539 0.349727 28.5562 0.349727H33.5627ZM33.2896 10.2718C34.1999 10.2718 34.9383 9.90767 35.5047 9.17945C36.0711 8.45122 36.3543 7.48026 36.3543 6.26655C36.3543 5.05284 36.0711 4.08188 35.5047 3.35365C34.9383 2.6052 34.1999 2.23097 33.2896 2.23097H30.5285C30.4475 2.23097 30.4071 2.27143 30.4071 2.35234V10.1504C30.4071 10.2313 30.4475 10.2718 30.5285 10.2718H33.2896Z" fill="black"/>
<path d="M53.5688 8.51191C53.6295 8.57259 53.6599 8.64339 53.6599 8.72431C53.6599 8.80522 53.6295 8.87602 53.5688 8.93671L50.4132 12.0923C50.3525 12.153 50.3525 12.2137 50.4132 12.2744L53.5688 15.43C53.6295 15.4907 53.6599 15.5615 53.6599 15.6424C53.6599 15.7234 53.6295 15.7942 53.5688 15.8548L52.8103 16.6134C52.7496 16.6741 52.6788 16.7044 52.5979 16.7044C52.517 16.7044 52.4462 16.6741 52.3855 16.6134L49.2298 13.4578C49.1692 13.3971 49.1085 13.3971 49.0478 13.4578L45.8921 16.6134C45.8315 16.6741 45.7607 16.7044 45.6797 16.7044C45.5988 16.7044 45.528 16.6741 45.4673 16.6134L44.7088 15.8548C44.6481 15.7942 44.6177 15.7234 44.6177 15.6424C44.6177 15.5615 44.6481 15.4907 44.7088 15.43L47.8644 12.2744C47.9251 12.2137 47.9251 12.153 47.8644 12.0923L44.7088 8.93671C44.6481 8.87602 44.6177 8.80522 44.6177 8.72431C44.6177 8.64339 44.6481 8.57259 44.7088 8.51191L45.4673 7.75334C45.528 7.69266 45.5988 7.66231 45.6797 7.66231C45.7607 7.66231 45.8315 7.69266 45.8921 7.75334L49.0478 10.909C49.1085 10.9697 49.1692 10.9697 49.2298 10.909L52.3855 7.75334C52.4462 7.69266 52.517 7.66231 52.5979 7.66231C52.6788 7.66231 52.7496 7.69266 52.8103 7.75334L53.5688 8.51191Z" fill="black"/>
<path d="M71.3215 15.8548C71.3418 17.6754 70.8563 19.0914 69.8651 20.1028C68.8739 21.1142 67.5489 21.6199 65.8902 21.6199H61.2478C61.0455 21.6199 60.9443 21.5188 60.9443 21.3165V0.683496C60.9443 0.481211 61.0455 0.380069 61.2478 0.380069H65.6171C67.3568 0.380069 68.7222 0.865553 69.7134 1.83652C70.7046 2.78726 71.2002 4.15268 71.2002 5.93278C71.2002 8.19837 70.3607 9.74584 68.6817 10.5752C68.6413 10.5954 68.621 10.6157 68.621 10.6359C68.621 10.6561 68.6312 10.6764 68.6514 10.6966C70.4315 11.7282 71.3215 13.4477 71.3215 15.8548ZM63.22 2.26132C63.1391 2.26132 63.0987 2.30177 63.0987 2.38269V9.69527C63.0987 9.77619 63.1391 9.81664 63.22 9.81664H65.6171C66.7095 9.81664 67.559 9.49299 68.1659 8.84568C68.7728 8.19837 69.0762 7.28809 69.0762 6.11484C69.0762 4.90113 68.7728 3.96051 68.1659 3.29297C67.559 2.6052 66.7095 2.26132 65.6171 2.26132H63.22ZM65.7385 19.7084C66.8106 19.7084 67.6501 19.3544 68.2569 18.6464C68.8638 17.9181 69.1672 16.9067 69.1672 15.6121C69.1672 14.2972 68.8638 13.2757 68.2569 12.5475C67.6501 11.8193 66.8106 11.4551 65.7385 11.4551H63.22C63.1391 11.4551 63.0987 11.4956 63.0987 11.5765V19.587C63.0987 19.6679 63.1391 19.7084 63.22 19.7084H65.7385Z" fill="black"/>
<path d="M79.278 21.8627C77.7204 21.8627 76.4561 21.3772 75.4851 20.4062C74.5344 19.4353 74.059 18.1508 74.059 16.5527V5.4473C74.059 3.84925 74.5344 2.56474 75.4851 1.59378C76.4561 0.622812 77.7204 0.137329 79.278 0.137329C80.8558 0.137329 82.1302 0.622812 83.1011 1.59378C84.0721 2.56474 84.5576 3.84925 84.5576 5.4473V16.5527C84.5576 18.1305 84.0721 19.415 83.1011 20.4062C82.1302 21.3772 80.8558 21.8627 79.278 21.8627ZM79.278 19.9814C80.2085 19.9814 80.9569 19.678 81.5233 19.0712C82.1099 18.4441 82.4033 17.6451 82.4033 16.6741V5.35627C82.4033 4.36508 82.1099 3.56605 81.5233 2.9592C80.9569 2.33212 80.2085 2.01857 79.278 2.01857C78.3677 2.01857 77.6293 2.33212 77.0629 2.9592C76.4965 3.56605 76.2133 4.36508 76.2133 5.35627V16.6741C76.2133 17.6451 76.4965 18.4441 77.0629 19.0712C77.6293 19.678 78.3677 19.9814 79.278 19.9814Z" fill="black"/>
<path d="M96.3047 21.6199C96.1227 21.6199 96.0114 21.5289 95.9709 21.3469L95.2124 17.5844C95.2124 17.5439 95.1921 17.5136 95.1517 17.4933C95.1315 17.4731 95.1011 17.463 95.0607 17.463H89.5686C89.5282 17.463 89.4877 17.4731 89.4473 17.4933C89.427 17.5136 89.4169 17.5439 89.4169 17.5844L88.6583 21.3469C88.6381 21.5289 88.5269 21.6199 88.3246 21.6199H86.7771C86.676 21.6199 86.595 21.5896 86.5344 21.5289C86.4939 21.4682 86.4838 21.3873 86.504 21.2862L91.0554 0.653153C91.0959 0.471097 91.2071 0.380069 91.3892 0.380069H93.2098C93.412 0.380069 93.5233 0.471097 93.5435 0.653153L98.1556 21.2862V21.3469C98.1556 21.5289 98.0646 21.6199 97.8825 21.6199H96.3047ZM89.8114 15.5818C89.8114 15.6627 89.8417 15.7031 89.9024 15.7031H94.6965C94.7572 15.7031 94.7876 15.6627 94.7876 15.5818L92.3602 3.65708C92.3399 3.59639 92.3197 3.56605 92.2995 3.56605C92.2792 3.56605 92.259 3.59639 92.2388 3.65708L89.8114 15.5818Z" fill="black"/>
<path d="M109.235 21.6199C109.053 21.6199 108.932 21.539 108.871 21.3772L105.776 12.0013C105.756 11.9406 105.716 11.9103 105.655 11.9103H103.015C102.934 11.9103 102.894 11.9507 102.894 12.0317V21.3165C102.894 21.5188 102.793 21.6199 102.59 21.6199H101.043C100.841 21.6199 100.739 21.5188 100.739 21.3165V0.683496C100.739 0.481211 100.841 0.380069 101.043 0.380069H106.049C107.526 0.380069 108.72 0.926238 109.63 2.01857C110.54 3.09068 110.995 4.49656 110.995 6.23621C110.995 7.55106 110.712 8.68385 110.146 9.63459C109.579 10.5853 108.811 11.2529 107.84 11.6372C107.759 11.6574 107.728 11.708 107.749 11.7889L111.056 21.2862L111.086 21.4075C111.086 21.5491 110.995 21.6199 110.813 21.6199H109.235ZM103.015 2.26132C102.934 2.26132 102.894 2.30177 102.894 2.38269V10.0594C102.894 10.1403 102.934 10.1808 103.015 10.1808H105.746C106.677 10.1808 107.425 9.82676 107.991 9.11876C108.558 8.39054 108.841 7.42969 108.841 6.23621C108.841 5.04273 108.558 4.08188 107.991 3.35365C107.425 2.62543 106.677 2.26132 105.746 2.26132H103.015Z" fill="black"/>
<path d="M114.496 21.6199C114.293 21.6199 114.192 21.5188 114.192 21.3165V0.683496C114.192 0.481211 114.293 0.380069 114.496 0.380069H119.168C120.726 0.380069 121.97 0.895895 122.901 1.92755C123.831 2.93897 124.296 4.30439 124.296 6.02381V15.9762C124.296 17.6956 123.831 19.0712 122.901 20.1028C121.97 21.1142 120.726 21.6199 119.168 21.6199H114.496ZM116.347 19.6173C116.347 19.6982 116.387 19.7387 116.468 19.7387L119.138 19.7084C120.028 19.7084 120.736 19.3645 121.262 18.6767C121.808 17.9889 122.091 17.0584 122.112 15.8852V6.11484C122.112 4.92136 121.849 3.98073 121.323 3.29297C120.797 2.6052 120.069 2.26132 119.138 2.26132H116.468C116.387 2.26132 116.347 2.30177 116.347 2.38269V19.6173Z" fill="black"/>
</svg>
